<?xml version="1.0" encoding="UTF-8" standalone="no"?>
<svg
   xmlns:dc="http://purl.org/dc/elements/1.1/"
   xmlns:cc="http://creativecommons.org/ns#"
   xmlns:rdf="http://www.w3.org/1999/02/22-rdf-syntax-ns#"
   xmlns:svg="http://www.w3.org/2000/svg"
   xmlns="http://www.w3.org/2000/svg"
   xmlns:sodipodi="http://sodipodi.sourceforge.net/DTD/sodipodi-0.dtd"
   xmlns:inkscape="http://www.inkscape.org/namespaces/inkscape"
   width="500"
   height="500"
   version="1.1"
   viewBox="0 0 500.00001 500.00001"
   id="svg28"
   sodipodi:docname="icon.svg"
   inkscape:version="0.92.3 (2405546, 2018-03-11)">
  <metadata
     id="metadata34">
    <rdf:RDF>
      <cc:Work
         rdf:about="">
        <dc:format>image/svg+xml</dc:format>
        <dc:type
           rdf:resource="http://purl.org/dc/dcmitype/StillImage" />
        <dc:title></dc:title>
      </cc:Work>
    </rdf:RDF>
  </metadata>
  <defs
     id="defs32" />
  <sodipodi:namedview
     pagecolor="#ffffff"
     bordercolor="#666666"
     borderopacity="1"
     objecttolerance="10"
     gridtolerance="10"
     guidetolerance="10"
     inkscape:pageopacity="0"
     inkscape:pageshadow="2"
     inkscape:window-width="1366"
     inkscape:window-height="725"
     id="namedview30"
     showgrid="false"
     inkscape:zoom="1.3350176"
     inkscape:cx="446.25183"
     inkscape:cy="155.86235"
     inkscape:window-x="0"
     inkscape:window-y="25"
     inkscape:window-maximized="1"
     inkscape:current-layer="svg28" />
  <g
     transform="translate(0 -552.36)"
     id="g26">
    <circle
       cx="250"
       cy="802.36"
       r="197.57"
       fill="none"
       stroke="#555"
       stroke-width="25"
       id="circle2" />
    <rect
       transform="matrix(.86603 .5 -.5 .86603 0 0)"
       x="420.13"
       y="563.55"
       width="59.852"
       height="16.38"
       ry="0"
       fill="#555"
       id="rect4" />
    <rect
       transform="matrix(-.5 -.86603 .86603 -.5 0 0)"
       x="-682.17"
       y="-195.36"
       width="59.852"
       height="16.38"
       ry="0"
       fill="#555"
       id="rect6" />
    <rect
       transform="rotate(90)"
       x="604.81"
       y="-255.74"
       width="59.852"
       height="16.38"
       ry="0"
       fill="#555"
       id="rect8" />
    <rect
       x="387.71"
       y="794.92"
       width="59.852"
       height="16.38"
       ry="0"
       fill="#555"
       id="rect10" />
    <rect
       x="52.435"
       y="794.92"
       width="59.852"
       height="16.38"
       ry="0"
       fill="#555"
       id="rect12" />
    <rect
       transform="matrix(.86603 -.5 .5 .86603 0 0)"
       x="-382.24"
       y="811.1"
       width="59.852"
       height="16.38"
       ry="0"
       fill="#555"
       id="rect14" />
    <rect
       transform="matrix(-.86603 .5 .5 .86603 0 0)"
       x="-10.765"
       y="809.87"
       width="59.852"
       height="16.38"
       ry="0"
       fill="#555"
       id="rect16" />
    <rect
       transform="matrix(.5 -.86603 -.86603 -.5 0 0)"
       x="-432.16"
       y="-624.13"
       width="59.852"
       height="16.38"
       ry="0"
       fill="#555"
       id="rect18" />
    <rect
       transform="matrix(-.86603 -.5 -.5 .86603 0 0)"
       x="-811"
       y="561.09"
       width="59.852"
       height="16.38"
       ry="0"
       fill="#555"
       id="rect20" />
    <circle
       cx="247.55"
       cy="826.64"
       r="15.625"
       fill="#555"
       id="circle22" />
    <path
       d="m248.74 834.6 166.64 11.281-164.73-28.325c-11.591-3.4984-13.731 15.63-1.9069 17.044z"
       color="#000000"
       color-rendering="auto"
       fill="#555"
       fill-rule="evenodd"
       image-rendering="auto"
       shape-rendering="auto"
       solid-color="#000000"
       style="block-progression:tb;isolation:auto;mix-blend-mode:normal;text-decoration-color:#000000;text-decoration-line:none;text-decoration-style:solid;text-indent:0;text-transform:none;white-space:normal"
       id="path24" />
  </g>
  <path
     style="fill:#000000;stroke-width:1.059322"
     d="M 236.14161,459.15174 C 190.74495,454.80138 156.34632,441.81865 122.56076,416.28404 111.31033,407.78114 92.232008,388.70281 83.729102,377.45238 58.399146,343.9376 44.502737,307.21694 41.071483,264.73148 36.920219,213.3309 54.042727,159.14404 87.536681,117.68509 c 7.538598,-9.33131 24.636799,-26.083112 33.668489,-32.986387 78.54584,-60.035664 185.969,-58.69901 261.54109,3.254328 10.01367,8.209114 27.30329,26.212369 34.76446,36.199369 47.3377,63.36287 55.27827,147.61481 20.52553,217.78241 -33.11622,66.8634 -96.24815,110.09382 -170.64464,116.85114 -11.06765,1.00526 -23.10654,1.14618 -31.25,0.36579 z m 33.67523,-24.80019 c 44.05131,-4.83974 84.06559,-24.6468 114.63268,-56.74317 7.61697,-7.99806 18.46466,-21.6898 21.01551,-26.52538 1.40722,-2.66761 3.53932,-1.15501 -23.66664,-16.79007 -9.90466,-5.69214 -18.23411,-10.54512 -18.50988,-10.78439 -0.27578,-0.23927 1.11741,-3.43473 3.09599,-7.10103 l 3.59742,-6.666 22.10537,12.72169 c 14.71766,8.47005 22.45893,12.36813 23.16331,11.66375 2.04354,-2.04355 11.29654,-26.40955 14.12367,-37.19201 2.568,-9.79412 5.84546,-29.78185 5.89921,-35.97655 l 0.0207,-2.38347 H 411.98907 388.68399 V 250.63 242.68509 h 23.30508 23.30509 l -0.0194,-3.4428 c -0.0355,-6.30482 -3.108,-25.27776 -5.85313,-36.14397 -3.91363,-15.49155 -13.89567,-39.86239 -16.32724,-39.86239 -0.53769,0 -10.12319,5.28617 -21.3011,11.74704 -22.52121,13.01732 -20.72013,12.74389 -25.74339,3.90824 l -2.84348,-5.0015 3.99938,-2.47881 c 2.19965,-1.36334 11.75896,-6.92233 21.2429,-12.35331 l 17.24354,-9.8745 -1.77929,-2.7723 c -9.359,-14.58219 -30.66302,-36.40504 -46.41353,-47.543832 l -9.38335,-6.635927 -3.33097,5.576605 c -1.83204,3.067134 -7.09155,12.131164 -11.6878,20.142284 -4.59626,8.01112 -8.7543,14.56568 -9.2401,14.56568 -1.18644,0 -12.50373,-6.4163 -12.50373,-7.08894 0,-0.29193 5.00529,-9.22445 11.12288,-19.85007 6.11758,-10.625608 11.12288,-19.811334 11.12288,-20.41272 0,-0.601385 -3.45604,-2.642644 -7.68008,-4.53613 C 307.8908,72.546292 284.61067,66.634506 264.97893,65.152506 l -9.76953,-0.737502 v 23.457075 23.457081 h -7.94492 -7.94491 V 88.024071 c 0,-21.496497 -0.14387,-23.303579 -1.85381,-23.285678 -10.08762,0.105603 -37.16242,5.838743 -50.05297,10.598813 -7.41021,2.736353 -24.28506,10.135767 -25.19854,11.049249 -0.22376,0.223762 4.8982,9.591355 11.38215,20.816875 8.72629,15.10765 11.43313,20.62452 10.41922,21.23565 -0.75338,0.45409 -3.76351,2.21957 -6.68919,3.9233 l -5.31939,3.09767 -11.47948,-20.01031 c -6.31372,-11.00567 -11.94016,-20.010315 -12.50321,-20.010315 -1.82054,0 -17.04869,11.961775 -25.6196,20.124305 -11.67632,11.11998 -29.271622,32.82224 -29.271622,36.10398 0,0.49819 4.525932,3.54775 10.057632,6.7768 5.53169,3.22906 14.56156,8.50001 20.06637,11.71324 l 10.00875,5.84225 -3.77069,6.32988 c -2.07389,3.48143 -4.02245,6.32988 -4.33014,6.32988 -0.3077,0 -9.22903,-5.00529 -19.82519,-11.12288 C 94.743711,171.4192 85.606953,166.4139 85.035961,166.4139 c -1.286455,0 -8.799125,17.72575 -12.346683,29.13136 -3.82102,12.2848 -8.157835,36.34468 -8.157835,45.25823 0,1.74683 1.707095,1.8816 23.834746,1.8816 h 23.834741 v 7.94491 7.94492 H 88.313587 64.426239 l 0.664308,6.62076 c 1.353763,13.49213 3.99937,27.08003 7.579274,38.92733 3.66655,12.13404 11.584085,30.72309 13.085722,30.72309 0.434337,0 9.45215,-5.00529 20.039587,-11.12288 10.58743,-6.11758 19.59638,-11.12288 20.01988,-11.12288 0.80081,0 7.59944,11.31425 7.53658,12.54235 -0.0197,0.38455 -9.07312,5.86202 -20.11876,12.17214 -17.46856,9.97941 -19.951697,11.71828 -19.074511,13.35731 0.55466,1.03639 3.808357,5.64581 7.230441,10.24314 38.89002,52.24609 103.78024,80.53885 168.42808,73.43627 z"
     id="path3780"
     inkscape:connector-curvature="0" />
  <path
     style="fill:#000000;stroke-width:1.059322"
     d="m 322.58201,286.87762 c -47.25732,-3.27939 -61.72398,-3.97317 -63.02966,-3.02271 -5.72488,4.1674 -8.46576,5.43287 -11.77472,5.43639 -8.09713,0.009 -15.10289,-6.80108 -15.10289,-14.68019 0,-14.58492 17.47577,-20.3375 27.44916,-9.03557 1.7245,1.95422 10.32061,3.65115 68.70839,13.56355 36.70551,6.23144 67.21398,11.50486 67.79661,11.71872 2.80491,1.02956 -17.86612,-0.0815 -74.04689,-3.98019 z"
     id="path3782"
     inkscape:connector-curvature="0" />
  <path
     style="fill:#333333;stroke-width:1.059322"
     d="m 227.66704,433.26813 c -41.06258,-5.28131 -79.10034,-23.89387 -108.14881,-52.91914 -10.38208,-10.3738 -24.765076,-28.9271 -23.972559,-30.92335 0.292159,-0.7359 9.164409,-6.27654 19.716109,-12.31252 10.55171,-6.03598 19.16809,-11.51797 19.14751,-12.18221 -0.0206,-0.66422 -1.83257,-4.15427 -4.02666,-7.75564 l -3.98925,-6.54797 -19.95186,11.57975 c -10.973518,6.36885 -20.118641,11.57973 -20.322495,11.57973 -0.88357,0 -6.786262,-12.9514 -9.810359,-21.5254 -5.31947,-15.08192 -8.381493,-28.86727 -10.214445,-45.98584 l -0.706712,-6.60022 23.671543,-0.28537 23.671548,-0.28537 V 250.63 242.15543 l -23.56992,-0.2851 c -21.66945,-0.26211 -23.569915,-0.43518 -23.569915,-2.14644 0,-8.68943 4.213207,-31.57662 8.126979,-44.14779 2.735696,-8.78715 9.565041,-25.82125 10.994536,-27.42315 0.446269,-0.50009 9.59478,4.14769 20.33002,10.32839 10.73525,6.18071 19.95532,11.23323 20.48905,11.22784 0.93322,-0.01 9.26447,-13.78201 8.67428,-14.33963 -0.15873,-0.14996 -9.10503,-5.36216 -19.88068,-11.58265 -10.77564,-6.2205 -19.768048,-11.48596 -19.98312,-11.70103 -1.524258,-1.52426 18.10702,-26.17767 28.69766,-36.03919 9.37869,-8.73301 23.98608,-19.755264 25.19266,-19.009558 0.48485,0.299657 5.97056,9.359408 12.19046,20.132788 l 11.30891,19.58796 5.19376,-2.91563 c 10.88679,-6.11154 10.90002,-3.93948 -0.14082,-23.10665 -5.34951,-9.28689 -10.66934,-18.437581 -11.82184,-20.334875 l -2.09547,-3.449628 9.3597,-4.333836 c 17.4959,-8.101167 39.26422,-14.088353 59.24799,-16.295643 l 6.45612,-0.713103 0.69431,9.781538 c 0.38187,5.379845 0.69431,15.905339 0.69431,23.389986 v 13.608451 h 8.47458 8.47457 V 88.931401 65.474326 l 9.65483,0.728843 c 12.92832,0.975959 28.80486,4.225182 41.8284,8.560415 11.81222,3.932014 24.78796,9.532793 24.78796,10.699341 0,0.41233 -5.07203,9.534852 -11.27117,20.272265 -12.65221,21.91467 -12.46998,20.01728 -2.45731,25.58629 l 5.869,3.2643 11.58107,-20.10289 c 6.36958,-11.05659 12.0707,-20.092589 12.66914,-20.080001 0.59844,0.01259 5.37834,3.208273 10.62198,7.101521 12.0254,8.9285 29.8985,26.74207 38.44885,38.3208 l 6.57119,8.89861 -20.72898,11.91923 c -11.40094,6.55557 -20.97804,12.16829 -21.28244,12.47268 -0.79029,0.7903 7.02779,14.48461 8.26927,14.48461 0.56759,0 10.0957,-5.24364 21.17358,-11.65254 11.07788,-6.4089 20.53195,-11.65254 21.00905,-11.65254 1.54981,0 10.71479,22.37427 14.30278,34.91709 3.30193,11.54279 6.9189,32.01607 6.9189,39.1633 v 3.25012 h -23.30508 -23.30509 v 9.00423 9.00424 h 23.44196 23.44196 l -0.74259,7.68008 c -1.13376,11.72576 -4.57887,28.44348 -8.05114,39.06903 -2.70833,8.28784 -9.97953,26.11515 -11.1215,27.26739 -0.33174,0.33472 -35.76833,-19.62507 -42.47624,-23.9249 -2.15328,-1.38028 -2.48422,-1.0741 -6.6513,6.15361 -2.4119,4.18338 -4.25235,7.70352 -4.08991,7.82252 0.16246,0.11901 8.87588,5.14115 19.36317,11.16031 10.48729,6.01916 20.38982,11.74483 22.00561,12.72371 l 2.93783,1.77978 -6.11579,8.54339 c -29.85855,41.71064 -76.18433,68.90525 -128.43969,75.39791 -10.31199,1.28125 -33.35594,1.26059 -43.45999,-0.039 z M 405.10348,291.38105 c -5.82627,-1.07358 -39.87051,-6.98479 -75.65386,-13.136 -41.52693,-7.13856 -65.8587,-11.77362 -67.26695,-12.81396 -8.84749,-6.53602 -9.51451,-6.85609 -14.28034,-6.85221 -15.14725,0.0123 -21.92887,19.16031 -10.08543,28.47636 5.6515,4.44547 15.11041,3.92151 20.54098,-1.13783 l 2.54346,-2.36959 60.97819,4.09241 c 33.538,2.25081 65.03009,4.42716 69.98242,4.83632 4.95233,0.40915 12.3411,0.76925 16.41949,0.80019 l 7.41526,0.0562 -10.59322,-1.95196 z"
     id="path3784"
     inkscape:connector-curvature="0" />
  <path
     style="fill:#333333;stroke-width:0.06620762"
     d="m 105.86357,133.97594 c 0.48965,-0.63159 2.48106,-3.02943 3.5878,-4.32004 10.83177,-12.63137 22.91465,-23.425 36.78401,-32.859138 l 1.85381,-1.260991 0.1584,0.144014 c 0.53019,0.482041 1.67348,2.414992 11.69108,19.766085 5.84855,10.13005 10.65052,18.46205 10.67105,18.51556 0.0283,0.0738 -0.0163,0.0969 -0.18493,0.0959 l -0.22225,-0.001 -3.80694,-6.60119 c -7.56472,-13.11713 -9.84048,-17.02515 -12.73292,-21.86539 -2.53014,-4.23397 -4.67439,-7.664843 -5.22866,-8.366038 -0.19023,-0.240651 -0.21895,-0.253702 -0.49096,-0.223044 -1.96444,0.221422 -13.30718,8.671572 -22.09963,16.463852 -5.53909,4.909 -11.17984,10.90954 -18.04158,19.19235 l -1.15864,1.39859 -0.4219,0.002 c -0.32779,0.001 -0.40759,-0.0167 -0.35774,-0.081 z"
     id="path3786"
     inkscape:connector-curvature="0" />
  <path
     style="fill:#333333;stroke-width:0.02340793"
     d="m 167.56312,95.81013 c -2.78936,-4.831286 -5.07786,-8.800573 -5.08556,-8.820638 -0.0106,-0.02775 0.0548,-0.07337 0.27366,-0.190618 1.39501,-0.747486 3.84564,-2.009456 5.06762,-2.60962 l 0.7304,-0.358723 0.50218,0.0063 0.50217,0.0063 -3.33509,1.543994 c -1.8343,0.849196 -3.33983,1.551653 -3.34561,1.561013 -0.006,0.0094 0.39152,0.678661 0.8829,1.487334 1.62535,2.674833 2.10165,3.477781 4.30878,7.263776 1.87852,3.222317 5.11639,8.807272 5.13672,8.860252 0.0114,0.0296 -0.0298,0.0348 -0.27664,0.0348 h -0.28998 z"
     id="path3788"
     inkscape:connector-curvature="0" />
  <path
     style="fill:#333333;stroke-width:0.03310381"
     d="m 178.95794,115.5397 c -3.18624,-5.5178 -5.79833,-10.04572 -5.80464,-10.06205 -0.006,-0.0166 0.11714,-0.0255 0.27976,-0.0201 l 0.29125,0.01 1.8161,3.14486 c 0.99886,1.72968 2.42144,4.18763 3.16128,5.46213 3.68763,6.35253 4.56473,7.93278 5.34137,9.62344 0.31902,0.69446 0.75638,1.82647 0.71973,1.86286 -0.006,0.006 -2.6186,-4.50297 -5.80485,-10.02076 z"
     id="path3790"
     inkscape:connector-curvature="0" />
  <path
     style="fill:#333333;stroke-width:0.03310381"
     d=""
     id="path3792"
     inkscape:connector-curvature="0" />
  <path
     style="fill:#333333;stroke-width:0.03310381"
     d="m 170.97465,135.41633 c -0.65966,-1.14194 -0.75037,-1.31551 -0.69148,-1.32308 0.0373,-0.005 0.13015,-0.0167 0.20638,-0.0265 0.0762,-0.01 0.14326,-0.0375 0.14896,-0.0616 0.006,-0.0241 0.28597,0.43792 0.6228,1.02663 0.33683,0.5887 0.62272,1.07096 0.63531,1.07168 0.0126,7.1e-4 2.87241,-1.6439 6.35515,-3.6547 3.48274,-2.01079 6.33777,-3.65048 6.34451,-3.64374 0.0284,0.0284 -0.22786,0.35329 -0.50594,0.6412 -0.76601,0.79309 -1.59923,1.32788 -4.7517,3.04979 -1.57075,0.85795 -2.24022,1.23052 -5.40105,3.00575 -1.10435,0.62024 -2.05196,1.15048 -2.1058,1.17832 l -0.0979,0.0506 z"
     id="path3794"
     inkscape:connector-curvature="0" />
  <path
     style="fill:#333333;stroke-width:0.03310381"
     d="m 172.89339,105.03621 -0.23828,-0.41319 0.23,-0.006 c 0.12651,-0.003 0.25529,-0.007 0.28618,-0.008 0.0367,-0.002 0.10902,0.0889 0.20886,0.26207 0.084,0.14566 0.19419,0.33559 0.24491,0.42207 l 0.0922,0.15725 -0.2928,-6.2e-4 -0.29281,-6.1e-4 z"
     id="path3796"
     inkscape:connector-curvature="0" />
  <path
     style="fill:#333333;stroke-width:0.03310381"
     d="m 168.6883,83.807042 c -0.041,-0.02602 0.63611,-0.361154 2.5399,-1.25723 9.87058,-4.645877 20.11768,-8.400151 30.73438,-11.260292 l 0.9906,-0.266868 h 0.4908 0.49079 v 0.209732 0.209733 l -0.67035,0.173547 c -7.50911,1.944032 -15.91812,4.699315 -23.04853,7.552052 -3.33371,1.333749 -5.46185,2.258843 -9.43113,4.099673 l -1.22138,0.566439 -0.41726,-5.07e-4 c -0.22949,-2.65e-4 -0.43551,-0.0121 -0.45782,-0.02628 z"
     id="path3798"
     inkscape:connector-curvature="0" />
  <path
     style="fill:#333333;stroke-width:0.06620762"
     d="m 239.24071,89.923003 c -0.0519,-3.201935 -0.37243,-11.587233 -0.51246,-13.407045 -0.0196,-0.254899 -0.20049,-2.816231 -0.40193,-5.691848 -0.20145,-2.875618 -0.37214,-5.23263 -0.37931,-5.237805 -0.0234,-0.01688 -8.59001,0.94858 -9.71246,1.094596 -7.16157,0.931621 -14.32819,2.285189 -21.77513,4.112693 -1.32517,0.3252 -2.43497,0.591273 -2.46623,0.591273 -0.0313,0 -0.0568,-0.08938 -0.0568,-0.198623 0,-0.194706 -0.007,-0.198741 -0.34759,-0.204636 -0.32626,-0.0056 -0.29476,-0.01978 0.51311,-0.230281 10.43701,-2.71952 22.72338,-4.688805 33.55162,-5.377724 l 0.77885,-0.04955 0.13168,0.351954 c 0.24457,0.653669 0.40995,1.934413 0.52772,4.086775 0.11351,2.074354 0.20668,9.927676 0.18577,15.658104 -0.0111,3.040586 -0.0276,5.066539 -0.0368,4.502119 z"
     id="path3800"
     inkscape:connector-curvature="0" />
  <path
     style="fill:#333333;stroke-width:0.06620762"
     d="M 255.77692,83.03513 V 65.024374 l 0.31449,0.03332 c 0.17296,0.01832 0.86566,0.0503 1.53932,0.07106 5.55369,0.171139 13.28291,0.901496 19.66367,1.858077 2.52877,0.379105 7.32275,1.19894 7.76284,1.327553 0.0857,0.02503 0.11587,0.103637 0.11587,0.301406 0,0.244275 -0.013,0.26433 -0.14897,0.230563 -0.74998,-0.186197 -5.5482,-1.021304 -8.02768,-1.397178 -4.74795,-0.719763 -7.42491,-1.000386 -14.85473,-1.557205 -2.89981,-0.217323 -5.4139,-0.409626 -5.58687,-0.42734 l -0.31449,-0.03221 v 17.806732 17.806728 h -0.23172 -0.23173 z"
     id="path3802"
     inkscape:connector-curvature="0" />
  <path
     style="fill:#333333;stroke-width:0.04681586"
     d="m 247.53952,112.3273 8.20448,-0.012 v -5.61777 -5.61778 h 0.25749 0.25748 v 5.64132 5.64131 l -8.46196,-0.0116 -8.46197,-0.0116 z"
     id="path3804"
     inkscape:connector-curvature="0" />
  <path
     style="fill:#333333;stroke-width:0.04681586"
     d="m 322.24699,104.08636 c 1.08406,-1.8391 5.95601,-10.455761 7.70944,-13.635121 1.96844,-3.569235 2.6362,-4.873508 2.58849,-5.055928 -0.32139,-1.229019 -12.60143,-6.540105 -24.10037,-10.423353 -6.58012,-2.222136 -14.40212,-4.305124 -21.67575,-5.772216 -0.77246,-0.155806 -1.44724,-0.293171 -1.4995,-0.305255 -0.0796,-0.01841 -0.0922,-0.05173 -0.0775,-0.205743 0.01,-0.101075 -0.007,-0.228919 -0.0362,-0.284098 -0.0487,-0.09091 -0.0436,-0.09806 0.0541,-0.07618 0.0593,0.01328 0.69767,0.141917 1.41864,0.28586 10.62136,2.120585 21.58871,5.386105 31.90501,9.499692 4.58621,1.828737 8.56736,3.599292 13.34252,5.933883 1.4418,0.704902 1.68537,0.868576 1.68537,1.132546 0,0.06038 -0.0685,0.244768 -0.15215,0.409761 -0.0837,0.164993 -2.52092,4.402024 -5.41608,9.415625 l -5.26392,9.115637 h -0.25141 c -0.13827,0 -0.24209,-0.0158 -0.23071,-0.0351 z"
     id="path3806"
     inkscape:connector-curvature="0" />
  <path
     style="fill:#333333;stroke-width:0.04681586"
     d="m 312.25746,122.16679 c 0.0506,-0.23221 0.68275,-1.59871 1.26314,-2.73042 1.05369,-2.05463 1.94462,-3.63514 5.91137,-10.48676 1.31184,-2.26589 2.47604,-4.28019 2.5871,-4.47623 l 0.20193,-0.35643 0.2167,0.0232 c 0.11918,0.0128 0.22423,0.0297 0.23344,0.0377 0.0128,0.011 -9.79059,17.02546 -10.32913,17.92701 -0.0917,0.15358 -0.10695,0.16472 -0.0846,0.0619 z"
     id="path3808"
     inkscape:connector-curvature="0" />
  <path
     style="fill:#333333;stroke-width:0.04681586"
     d="m 321.71808,132.91326 c -1.59642,-0.88916 -3.71367,-2.06066 -4.70499,-2.60334 -2.62512,-1.43705 -3.17005,-1.76844 -3.97587,-2.41782 -0.39917,-0.32168 -0.96868,-0.92851 -0.91851,-0.97869 0.0111,-0.0111 2.7811,1.57401 6.15565,3.52238 3.37454,1.94837 6.15136,3.53268 6.1707,3.5207 0.0193,-0.012 4.40659,-7.59661 9.74945,-16.85472 l 9.71429,-16.83292 0.40964,-0.002 c 0.2253,-9.8e-4 0.40964,0.007 0.40964,0.0182 0,0.011 -0.23528,0.39545 -0.52283,0.85438 -3.10372,4.95358 -4.64713,7.57615 -13.40885,22.7844 -3.35385,5.82149 -6.11542,10.58934 -6.13682,10.59522 -0.0214,0.006 -1.34508,-0.71681 -2.9415,-1.60597 z"
     id="path3810"
     inkscape:connector-curvature="0" />
  <path
     style="fill:#333333;stroke-width:0.04681586"
     d="m 374.09544,113.86035 c -4.2628,-4.00464 -8.87432,-7.99858 -12.45301,-10.7853 -3.20251,-2.49379 -7.94596,-5.873769 -10.58039,-7.539142 -0.96678,-0.611156 -1.96756,-1.164485 -2.10615,-1.164485 -0.1296,0 -0.4551,0.345243 -0.94898,1.006541 -0.48252,0.646066 -2.10297,3.059987 -2.8693,4.274265 l -0.39294,0.622631 -0.37591,-0.0317 c -0.20675,-0.0175 -0.38231,-0.0372 -0.39013,-0.0438 -0.008,-0.007 0.90942,-1.612134 2.03831,-3.567725 l 2.05253,-3.555618 0.30248,0.188775 c 2.90174,1.810958 6.99383,4.568279 9.96996,6.717929 5.85056,4.225839 11.73229,9.026389 16.86986,13.768839 0.48917,0.45154 0.96478,0.88858 1.05693,0.97119 l 0.16754,0.1502 -0.63202,-4.8e-4 -0.63201,-4.8e-4 -1.07677,-1.01156 z"
     id="path3812"
     inkscape:connector-curvature="0" />
  <path
     style="fill:#333333;stroke-width:0.02340793"
     d="m 399.15054,141.36028 c -1.65019,-2.23755 -2.31884,-3.11861 -3.34423,-4.40655 -3.33613,-4.19035 -7.84036,-9.23966 -12.65389,-14.1852 -0.43858,-0.4506 -0.88087,-0.90618 -0.98288,-1.0124 l -0.18547,-0.19311 h 0.62261 0.6226 l 0.5343,0.55644 c 3.37725,3.51723 6.99736,7.6341 10.20379,11.60398 2.18922,2.71048 4.21447,5.37076 6.46431,8.49123 l 0.0802,0.11118 h -0.3246 -0.32459 z"
     id="path3814"
     inkscape:connector-curvature="0" />
  <path
     style="fill:#333333;stroke-width:0.04681586"
     d="m 379.58008,119.16759 c -1.31319,-1.30663 -2.8337,-2.80198 -3.37892,-3.32299 l -0.99131,-0.9473 h 0.62293 0.62293 l 1.00039,0.9466 c 1.18355,1.1199 5.14422,5.04561 5.48045,5.43206 l 0.23421,0.2692 -0.60154,-9.4e-4 -0.60153,-9.3e-4 z"
     id="path3816"
     inkscape:connector-curvature="0" />
  <path
     style="fill:#333333;stroke-width:0.02340793"
     d="m 377.2051,164.57855 v -0.0917 l 1.16455,-0.67353 c 2.1171,-1.22445 5.84866,-3.37207 16.08153,-9.25533 5.56457,-3.19928 10.11717,-5.82741 10.1169,-5.84028 -2.8e-4,-0.0129 -0.79446,-1.09783 -1.76486,-2.41102 l -1.76437,-2.38761 0.29351,-0.007 c 0.28086,-0.006 0.29513,-0.004 0.33132,0.0459 0.60129,0.83357 3.35004,4.9158 3.35004,4.97522 0,0.0113 -6.12482,3.55661 -13.61071,7.87855 l -13.61071,7.85808 h -0.2936 -0.2936 z"
     id="path3818"
     inkscape:connector-curvature="0" />
  <path
     style="fill:#333333;stroke-width:0.03310381"
     d="m 362.52506,173.32958 c 0,-0.0976 0.0213,-0.15793 0.0745,-0.21106 0.17398,-0.17373 2.93707,-1.82728 7.90353,-4.7298 2.3989,-1.40198 6.59661,-3.83842 6.64546,-3.85716 0.0266,-0.0102 0.0415,0.0145 0.0415,0.069 0,0.0834 0.005,0.0851 0.26713,0.0946 l 0.26713,0.01 -7.56823,4.36971 c -4.16253,2.40333 -7.58236,4.37466 -7.59962,4.38073 -0.0173,0.006 -0.0314,-0.0505 -0.0314,-0.12564 z"
     id="path3820"
     inkscape:connector-curvature="0" />
  <path
     style="fill:#333333;stroke-width:0.03310381"
     d="m 369.96713,186.84314 c -1.64049,-1.95373 -5.02042,-7.6687 -6.67138,-11.28031 -0.22646,-0.49541 -0.57859,-1.37185 -0.56538,-1.40723 0.005,-0.0145 1.69071,2.88569 3.74507,6.44496 2.05436,3.55926 3.72892,6.47767 3.72124,6.48535 -0.008,0.008 -0.11099,-0.10156 -0.22955,-0.24277 z"
     id="path3822"
     inkscape:connector-curvature="0" />
  <path
     style="fill:#333333;stroke-width:0.03310381"
     d="m 371.18336,187.43554 c 0.0318,-0.0284 27.80744,-16.06707 27.86179,-16.08839 0.0161,-0.006 0.025,0.11232 0.0196,0.26365 l -0.01,0.27514 -0.92691,0.52624 c -0.5098,0.28943 -2.36444,1.3541 -4.12142,2.36594 -5.48522,3.15889 -6.18521,3.56066 -8.2594,4.74066 -6.55444,3.72879 -11.85932,6.64142 -13.90913,7.63677 -0.59792,0.29034 -0.72929,0.3465 -0.6549,0.27999 z"
     id="path3824"
     inkscape:connector-curvature="0" />
  <path
     style="fill:#333333;stroke-width:0.09363172"
     d="m 400.68089,143.37335 c -0.22283,-0.29144 -0.48,-0.64576 -0.5715,-0.78738 l -0.16637,-0.25748 0.26825,0.002 c 0.22583,0.002 0.34601,0.11184 0.75983,0.69522 0.27036,0.38114 0.49156,0.71229 0.49156,0.73589 0,0.0236 -0.0847,0.0651 -0.18832,0.0922 -0.14565,0.0381 -0.28012,-0.0708 -0.59345,-0.48065 z"
     id="path3826"
     inkscape:connector-curvature="0" />
  <path
     style="fill:#333333;stroke-width:0.02340793"
     d="m 419.22341,176.59136 c -0.0263,-0.0612 -0.10602,-0.25339 -0.17726,-0.4272 -0.46728,-1.13999 -1.32088,-3.134 -1.89889,-4.4358 -1.94688,-4.38481 -3.33429,-6.95998 -3.98327,-7.39337 -0.0731,-0.0488 -0.20274,-0.0494 -0.31965,-0.001 -1.1198,0.45941 -6.2844,3.2867 -13.51959,7.40113 l -0.25029,0.14233 -0.007,-0.27346 -0.007,-0.27346 6.99553,-4.03769 c 6.2908,-3.63094 7.00472,-4.03725 7.08684,-4.03325 0.0982,0.005 0.27799,0.0922 0.39401,0.19159 0.0801,0.0686 0.31227,0.50446 1.34826,2.53099 1.64752,3.22275 3.35288,6.83711 4.82922,10.23512 l 0.21103,0.48571 h -0.3269 -0.3269 z"
     id="path3828"
     inkscape:connector-curvature="0" />
  <path
     style="fill:#333333;stroke-width:0.02340793"
     d="m 427.45988,199.68775 c -1.39858,-4.98863 -4.00692,-12.4828 -6.78654,-19.49881 l -0.17388,-0.43889 0.35429,2e-5 0.3543,2e-5 0.23085,0.56762 c 2.29982,5.65472 4.35382,11.53505 6.09753,17.45644 0.23081,0.78377 0.7238,2.50698 0.76511,2.67436 l 0.0159,0.0644 h -0.31311 -0.31311 z"
     id="path3830"
     inkscape:connector-curvature="0" />
  <path
     style="fill:#333333;stroke-width:0.03310381"
     d="m 420.47396,179.66857 c -0.0178,-0.041 -0.29172,-0.71876 -0.6086,-1.50622 l -0.57614,-1.43174 h 0.32358 0.32358 l 0.4232,1.00139 c 0.23277,0.55077 0.51702,1.22857 0.63168,1.50623 l 0.20846,0.50483 h -0.34665 c -0.32781,0 -0.34842,-0.004 -0.37911,-0.0745 z"
     id="path3832"
     inkscape:connector-curvature="0" />
  <path
     style="fill:#333333;stroke-width:0.04681586"
     d="m 387.63655,243.23696 -0.0108,-1.58004 h 23.31968 23.31968 l -0.0242,-2.53976 c -0.0245,-2.56979 -0.0579,-3.2291 -0.26835,-5.30189 -0.7891,-7.7716 -2.87924,-19.47589 -5.19859,-29.11098 -0.17862,-0.74205 -0.32477,-1.36879 -0.32477,-1.39277 0,-0.024 0.13448,-0.0436 0.29885,-0.0436 0.26994,0 0.3017,0.0102 0.32839,0.10533 0.10367,0.36959 0.86257,3.43286 1.08153,4.36558 2.21331,9.42821 3.70596,19.20618 4.39877,28.81517 0.11994,1.66341 0.235,3.60117 0.28216,4.75181 0.0148,0.36048 0.0384,0.78709 0.0526,0.94802 l 0.0257,0.2926 h -23.6215 -23.6215 l -0.0134,1.13528 c -0.012,1.01741 -0.0145,0.97123 -0.0242,-0.44475 z"
     id="path3834"
     inkscape:connector-curvature="0" />
  <path
     style="fill:#333333;stroke-width:0.06620762"
     d="m 428.09579,201.96405 c -0.1859,-0.71008 -0.33769,-1.3134 -0.33733,-1.34071 3.7e-4,-0.0273 0.1274,-0.0497 0.2823,-0.0497 h 0.28164 l 0.32347,1.20829 c 0.17791,0.66456 0.33685,1.25722 0.35319,1.31702 0.0238,0.0869 -0.0301,0.11349 -0.26778,0.13241 l -0.29751,0.0237 z"
     id="path3836"
     inkscape:connector-curvature="0" />
  <path
     style="fill:#333333;stroke-width:0.04681586"
     d="m 399.34831,259.61347 c 6.44362,-0.007 16.98772,-0.007 23.43134,0 6.44362,0.007 1.17156,0.0119 -11.71567,0.0119 -12.88724,0 -18.15929,-0.005 -11.71567,-0.0119 z"
     id="path3838"
     inkscape:connector-curvature="0" />
  <path
     style="fill:#333333;stroke-width:0.04681586"
     d="m 430.69519,286.97734 c 0.014,-0.0579 0.1733,-0.85322 0.35391,-1.7673 1.11034,-5.61947 2.00216,-11.23913 2.52977,-15.9408 0.1329,-1.18433 0.93985,-9.41725 0.93985,-9.58885 0,-0.0735 -1.52156,-0.0786 -23.43133,-0.0786 h -23.43134 l 0.0115,-7.03408 0.0115,-7.03408 0.012,6.70637 0.012,6.70637 h 23.56987 23.56986 l -0.0222,0.2926 c -0.0122,0.16093 -0.0545,0.87195 -0.0939,1.58004 -0.398,7.14795 -1.33471,14.98236 -2.66442,22.28435 -0.25527,1.40182 -0.70802,3.73615 -0.75591,3.89742 -0.02,0.0672 -0.0794,0.0819 -0.33055,0.0819 -0.29392,0 -0.3052,-0.004 -0.28071,-0.10533 z"
     id="path3840"
     inkscape:connector-curvature="0" />
  <path
     style="fill:#333333;stroke-width:0.01655191"
     d="m 414.8331,293.31923 -0.59587,-0.004 -14.56975,-2.50401 -14.56975,-2.504 -7e-5,-0.21963 c -6e-5,-0.21922 0,-0.21961 0.0372,-0.21126 0.0205,0.005 0.57725,0.1019 1.23725,0.21621 5.70698,0.98847 15.74459,2.75286 18.13262,3.18731 0.95419,0.17359 11.04926,2.03275 11.0815,2.04082 0.0136,0.003 -0.0161,0.005 -0.0662,0.004 -0.0501,-0.001 -0.35918,-0.004 -0.6869,-0.006 z"
     id="path3842"
     inkscape:connector-curvature="0" />
  <path
     style="fill:#333333;stroke-width:0.01655191"
     d="m 409.47028,293.2799 c -3.24454,-0.0254 -5.72574,-0.10205 -9.61666,-0.29702 -2.90632,-0.14563 -5.26718,-0.29821 -8.18492,-0.52898 -1.46079,-0.11554 -4.54115,-0.34372 -6.28558,-0.46562 l -0.28552,-0.0199 v -0.2473 -0.2473 l 0.11172,0.0104 c 0.0615,0.006 6.05552,0.41208 13.32015,0.90309 7.26463,0.49102 13.23821,0.89552 13.27463,0.89891 0.10058,0.009 -0.58214,0.008 -2.33382,-0.006 z"
     id="path3844"
     inkscape:connector-curvature="0" />
  <path
     style="fill:#333333;stroke-width:0.01655191"
     d="m 372.54454,286.1498 c -6.87264,-1.18273 -12.49823,-2.15294 -12.5013,-2.15601 -0.003,-0.003 -0.004,-0.10936 -9.8e-4,-0.2362 l 0.005,-0.2306 3.2359,0.55945 c 7.3844,1.27667 21.70532,3.76148 21.77817,3.7787 0.0363,0.009 0.0372,0.0145 0.0372,0.22367 0,0.19425 -0.003,0.21469 -0.029,0.21313 -0.0159,-9.5e-4 -5.65204,-0.96941 -12.52467,-2.15214 z"
     id="path3846"
     inkscape:connector-curvature="0" />
  <path
     style="fill:#333333;stroke-width:0.01655191"
     d="m 384.50231,291.92653 c -1.49249,-0.11373 -24.30761,-1.70284 -24.44806,-1.70284 -0.009,0 -0.0157,-0.0937 -0.0157,-0.22267 v -0.22268 l 0.0786,0.008 c 0.0432,0.004 5.64999,0.38399 12.45945,0.84352 6.80945,0.45952 12.41248,0.83961 12.45117,0.84464 l 0.0703,0.009 v 0.23899 0.23899 l -0.0952,-0.002 c -0.0523,-10e-4 -0.27766,-0.016 -0.50069,-0.033 z"
     id="path3848"
     inkscape:connector-curvature="0" />
  <path
     style="fill:#333333;stroke-width:0.04681586"
     d="m 330.00687,278.81729 c -16.49206,-2.8376 -29.99083,-5.16059 -29.99726,-5.1622 -0.006,-0.002 -0.0117,-0.12519 -0.0117,-0.2746 v -0.27167 l 1.79071,0.31984 c 8.89449,1.58864 16.75264,2.95745 37.70174,6.56727 19.56336,3.37104 20.49178,3.53188 20.51354,3.55363 0.01,0.01 0.011,0.10963 0.003,0.22225 l -0.0145,0.20475 z"
     id="path3850"
     inkscape:connector-curvature="0" />
  <path
     style="fill:#333333;stroke-width:0.04681586"
     d="m 353.62547,289.77532 c -7.30152,-0.50683 -53.41069,-3.62333 -53.60769,-3.62333 -0.0109,0 -0.0199,-0.0975 -0.0199,-0.21672 v -0.21672 l 0.31601,0.0288 c 0.1738,0.0158 13.5883,0.92455 29.81,2.01938 16.22169,1.09483 29.58353,2.00231 29.69296,2.01663 l 0.19897,0.026 v 0.20781 c 0,0.11429 -0.0158,0.20534 -0.0351,0.20232 -0.0193,-0.003 -2.87917,-0.20289 -6.35525,-0.44417 z"
     id="path3852"
     inkscape:connector-curvature="0" />
  <path
     style="fill:#333333;stroke-width:0.06620762"
     d="m 287.91179,271.58124 c -6.49994,-1.12177 -14.08936,-2.4306 -16.86539,-2.90852 -3.91676,-0.67429 -5.32561,-0.94316 -6.28972,-1.20034 -1.52241,-0.4061 -2.67119,-0.78331 -3.32795,-1.09273 -0.48061,-0.22644 -0.51036,-0.25452 -0.92677,-0.87489 -0.76104,-1.13381 -1.95398,-2.45176 -2.96263,-3.27311 -0.22743,-0.18519 -0.40069,-0.34954 -0.38501,-0.36522 0.0318,-0.0318 1.35841,0.91034 3.63298,2.57996 1.47402,1.08198 1.52732,1.11412 2.21795,1.33731 2.93201,0.94755 14.65068,3.29976 32.35489,6.49437 2.33051,0.42053 4.31922,0.78136 4.41936,0.80186 0.16133,0.033 0.18207,0.0668 0.18207,0.29683 0,0.20603 -0.0239,0.25797 -0.11586,0.25182 -0.0637,-0.004 -5.43399,-0.92557 -11.93392,-2.04734 z"
     id="path3854"
     inkscape:connector-curvature="0" />
  <path
     style="fill:#333333;stroke-width:0.02340793"
     d="m 280.51022,284.85541 c -10.57629,-0.71137 -19.25068,-1.29817 -19.27643,-1.30401 -0.24337,-0.0551 4.59353,-0.0741 6.02754,-0.0236 0.4781,0.0168 6.67387,0.42711 16.67543,1.10425 8.75307,0.59261 15.94414,1.07747 15.98016,1.07747 h 0.0655 l 0.007,0.22243 0.007,0.22243 -0.12874,-0.003 c -0.0708,-0.002 -8.78207,-0.5848 -19.35836,-1.29617 z"
     id="path3856"
     inkscape:connector-curvature="0" />
  <path
     style="fill:#333333;stroke-width:0.02340793"
     d="m 246.05109,290.03057 c -2.77197,-0.1858 -5.34486,-1.02177 -7.44373,-2.41858 -1.18251,-0.78697 -2.49158,-1.99864 -3.45029,-3.19356 -2.59715,-3.23707 -3.74757,-7.32355 -3.24298,-11.51954 0.0608,-0.50545 0.20515,-1.36958 0.22542,-1.34931 0.006,0.006 -0.0163,0.1934 -0.0494,0.41668 -0.22542,1.52178 -0.22967,3.05442 -0.0126,4.54916 0.634,4.3663 3.0665,8.24663 6.71715,10.71515 1.84486,1.24748 3.9539,2.09262 6.14458,2.46225 4.21003,0.71037 8.50637,-0.32102 11.93804,-2.86589 1.04791,-0.77711 2.04914,-1.74288 2.86893,-2.76732 0.26339,-0.32916 0.29483,-0.36021 0.39071,-0.386 0.11594,-0.0312 0.68466,-0.10844 0.69825,-0.0949 0.0154,0.0155 -2.73142,2.5583 -3.05581,2.82884 -2.54022,2.11851 -5.88178,3.39155 -9.5158,3.62526 -0.43281,0.0278 -1.78395,0.0264 -2.21244,-0.002 z"
     id="path3858"
     inkscape:connector-curvature="0" />
  <path
     style="fill:#333333;stroke-width:0.01655191"
     d="m 257.60568,262.14393 c -0.32821,-0.22772 -0.4423,-0.29702 -0.45995,-0.27938 -0.005,0.005 0.0304,0.0506 0.0797,0.10047 0.0492,0.0498 0.0845,0.0906 0.0783,0.0906 -0.006,0 -0.0877,-0.0596 -0.18114,-0.13243 -1.36573,-1.06414 -2.97632,-1.92328 -4.63972,-2.47495 -2.57542,-0.85415 -5.32457,-1.02773 -7.95964,-0.50256 -0.18106,0.0361 -0.33703,0.063 -0.34658,0.0598 -0.01,-0.003 0.0976,-0.0297 0.23817,-0.059 1.39879,-0.29123 2.62943,-0.38936 4.4018,-0.35099 1.03592,0.0224 1.50165,0.0544 2.08554,0.14326 1.58106,0.24055 2.92364,0.84328 5.15592,2.31465 0.60672,0.3999 1.89519,1.29034 1.89519,1.30972 0,0.0189 -0.0487,-0.0119 -0.34759,-0.21923 z"
     id="path3860"
     inkscape:connector-curvature="0" />
  <path
     style="fill:#333333;stroke-width:0.04681586"
     d="m 421.37007,318.28407 c 0,-0.0234 0.21293,-0.58691 0.47317,-1.25233 1.3032,-3.33216 2.73808,-7.22833 3.57487,-9.70693 1.7698,-5.24219 3.49222,-11.83471 5.14336,-19.68607 l 0.1083,-0.51497 0.31267,-0.0234 c 0.17197,-0.0129 0.31266,-0.0176 0.31264,-0.0105 -1.1e-4,0.0332 -0.4878,2.30185 -0.70168,3.26416 -2.00707,9.0303 -4.91206,18.53828 -8.28543,27.11809 l -0.33592,0.85439 h -0.30099 c -0.16554,0 -0.30099,-0.0191 -0.30099,-0.0425 z"
     id="path3862"
     inkscape:connector-curvature="0" />
  <path
     style="fill:#333333;stroke-width:0.04681586"
     d="m 414.26426,334.05664 c -0.69591,-0.19099 -2.38063,-0.89481 -3.68902,-1.54115 -0.23968,-0.1184 -8.81828,-5.05481 -19.06356,-10.96978 l -18.62777,-10.75451 0.43012,-0.0135 0.43012,-0.0135 1.64454,0.97882 c 11.84063,7.04749 38.39684,21.9178 39.14199,21.9178 0.15652,0 0.3368,-0.29831 1.0327,-1.70878 1.10673,-2.24315 2.72039,-6.00486 4.84997,-11.30603 l 0.93093,-2.31739 0.29268,0.0163 c 0.16098,0.009 0.29806,0.0214 0.30462,0.0275 0.0133,0.0125 -0.62995,1.60634 -1.17256,2.90553 -1.05201,2.51892 -2.35288,5.43863 -3.55639,7.98211 -0.98559,2.08293 -2.41651,4.91602 -2.48104,4.91223 -0.0321,-0.002 -0.24242,-0.0539 -0.46733,-0.11565 z"
     id="path3864"
     inkscape:connector-curvature="0" />
  <path
     style="fill:#333333;stroke-width:0.04681586"
     d="m 390.87041,340.67037 c -0.70809,-0.41229 -3.54162,-2.04586 -6.29674,-3.63017 -2.75511,-1.58431 -7.94816,-4.57052 -11.54011,-6.63603 -9.73753,-5.59947 -11.65715,-6.71077 -11.65715,-6.74851 0,-0.0665 0.37162,-0.90082 0.63847,-1.43341 1.30124,-2.59705 4.82796,-8.79647 6.18086,-10.86497 0.62867,-0.96121 1.41034,-1.92834 1.49231,-1.84637 0.0147,0.0147 -1.76443,3.1292 -3.95365,6.92108 l -3.9804,6.89432 0.33788,0.197 c 0.18584,0.10835 7.22684,4.17357 15.64668,9.03381 8.41983,4.86024 15.31756,8.84486 15.32829,8.85469 0.0107,0.01 -0.18941,0.0157 -0.44475,0.013 l -0.46426,-0.005 z"
     id="path3866"
     inkscape:connector-curvature="0" />
  <path
     style="fill:#333333;stroke-width:0.04681586"
     d="m 371.49224,309.9904 c -0.73186,-0.42383 -1.33899,-0.77895 -1.34919,-0.78915 -0.0102,-0.0102 0.0883,-0.0414 0.21878,-0.0694 0.48387,-0.10377 0.78718,0.0215 2.25039,0.92956 0.52785,0.32758 1.00186,0.61933 1.05336,0.64834 0.0742,0.0418 -0.003,0.0526 -0.37453,0.052 l -0.46816,-7.2e-4 -1.33065,-0.77062 z"
     id="path3868"
     inkscape:connector-curvature="0" />
  <path
     style="fill:#333333;stroke-width:0.09363172"
     d=""
     id="path3870"
     inkscape:connector-curvature="0" />
  <path
     style="fill:#333333;stroke-width:0.09363172"
     d="m 340.70576,410.60473 c 12.2949,-6.88917 23.70596,-15.16753 34.40826,-24.9621 1.98534,-1.81695 8.09011,-7.89168 9.88663,-9.83798 4.475,-4.8481 8.55578,-9.73808 12.29342,-14.73116 2.24804,-3.00312 8.32079,-11.5012 8.33348,-11.66169 0.0145,-0.18298 -3.52915,-2.29755 -12.85632,-7.67171 -0.43116,-0.24843 -0.39349,-0.34 0.11484,-0.27918 0.38074,0.0455 12.67434,7.12109 12.9621,7.46029 0.11561,0.13629 0.21042,0.30502 0.21067,0.37496 5.6e-4,0.16126 -3.03888,4.75638 -4.79453,7.24846 -14.21555,20.17841 -32.37602,37.35411 -53.30349,50.41307 -1.95094,1.21741 -4.39852,2.6802 -6.28452,3.75596 -1.46777,0.83719 -1.52571,0.86088 -2.10532,0.86088 h -0.59601 z"
     id="path3872"
     inkscape:connector-curvature="0" />
  <path
     style="fill:#333333;stroke-width:0.04681586"
     d="m 276.67294,432.82634 v -0.27336 l 0.40964,-0.0594 c 0.2253,-0.0327 1.14991,-0.18275 2.05469,-0.33355 20.6843,-3.44731 40.39434,-10.15912 58.65188,-19.97257 l 1.07866,-0.57978 0.5852,-0.0166 c 0.32186,-0.009 0.63787,-0.0323 0.70224,-0.0514 0.23835,-0.0709 0.002,0.071 -1.31085,0.7859 -19.15989,10.43639 -39.40067,17.28927 -60.80045,20.5851 -0.675,0.10396 -1.25961,0.18902 -1.29914,0.18902 -0.0564,0 -0.0719,-0.0588 -0.0719,-0.27336 z"
     id="path3874"
     inkscape:connector-curvature="0" />
  <path
     style="fill:#333333;stroke-width:0.06620762"
     d="m 246.11027,435.0025 c -7.54197,-0.21079 -13.59937,-0.67426 -20.29264,-1.55267 -18.68146,-2.45169 -37.3523,-7.91362 -54.3068,-15.88682 l -0.74484,-0.35027 v -0.32222 -0.32222 l 0.21517,0.0937 c 0.11835,0.0516 0.76636,0.35209 1.44002,0.66781 12.87705,6.03516 27.40553,10.81673 41.63131,13.7016 5.58783,1.13316 11.93972,2.13666 15.93622,2.51767 8.89577,0.8481 25.25492,0.96857 35.85143,0.26402 3.05042,-0.20282 5.37586,-0.4564 9.06996,-0.98903 0.88419,-0.12749 1.63021,-0.2318 1.6578,-0.2318 0.0276,0 0.0612,0.11564 0.0747,0.25697 l 0.0245,0.25698 -0.56377,0.0794 c -6.49061,0.91467 -12.46984,1.45403 -19.135,1.72608 -1.66216,0.0678 -9.37174,0.13225 -10.85805,0.0907 z"
     id="path3876"
     inkscape:connector-curvature="0" />
  <path
     style="fill:#333333;stroke-width:0.06620762"
     d="m 168.27354,416.00503 c -15.10735,-7.46424 -28.75917,-16.64813 -41.24735,-27.74804 -3.69756,-3.28651 -8.3844,-7.84113 -11.78793,-11.45538 l -1.12226,-1.19174 0.39671,-0.0203 0.39672,-0.0203 0.33142,0.35224 c 0.18228,0.19373 0.97628,1.0371 1.76445,1.87415 1.55556,1.65205 4.35167,4.4364 6.24984,6.22354 13.42742,12.64205 28.31551,23.0106 44.83633,31.2255 l 2.66486,1.32509 v 0.32583 c 0,0.1792 -0.007,0.32447 -0.0165,0.32282 -0.009,-0.002 -1.11891,-0.54765 -2.46624,-1.21333 z"
     id="path3878"
     inkscape:connector-curvature="0" />
  <path
     style="fill:#333333;stroke-width:0.04681586"
     d="m 113.9784,375.46915 c -0.0644,-0.0767 -0.69639,-0.77902 -1.40448,-1.56063 -5.1251,-5.65724 -10.0959,-11.9229 -14.574764,-18.37141 -0.377962,-0.54418 -0.687204,-1.00239 -0.687204,-1.01825 0,-0.0592 0.738411,-0.0304 0.762322,0.0297 0.09265,0.23284 2.278456,3.28988 3.759266,5.25768 3.58559,4.76473 8.78536,11.03787 12.69694,15.31789 l 0.39577,0.43305 h -0.28081 c -0.15445,0 -0.34138,0.0116 -0.41541,0.0258 -0.10902,0.0209 -0.15682,-7.5e-4 -0.25163,-0.11377 z"
     id="path3880"
     inkscape:connector-curvature="0" />
  <path
     style="fill:#333333;stroke-width:0.03310381"
     d="m 96.041038,352.66329 c -1.523463,-2.29057 -1.929963,-2.92665 -1.915597,-2.99748 0.04196,-0.20686 0.524384,-0.79509 0.98699,-1.20346 0.752099,-0.66392 0.63403,-0.59241 7.934809,-4.80594 l 6.97983,-4.0283 0.41116,0.009 0.41117,0.009 -1.06817,0.62722 c -6.09688,3.58007 -11.523011,6.97473 -13.415882,8.39318 -0.556703,0.41718 -0.826251,0.67681 -0.855216,0.82377 -0.112242,0.56949 0.658395,2.13822 2.252104,4.58443 l 0.277335,0.42568 -0.290898,-0.0228 c -0.178656,-0.014 -0.325465,-0.01 -0.380484,0.0116 l -0.08958,0.0343 z"
     id="path3882"
     inkscape:connector-curvature="0" />
  <path
     style="fill:#333333;stroke-width:0.02340793"
     d="m 110.3507,339.61981 -0.29663,-0.0128 8.20171,-4.73505 8.20172,-4.73506 0.25227,0.007 0.25226,0.007 -0.43273,0.26743 c -3.36398,2.07895 -6.57433,3.98257 -11.34142,6.72505 -2.2591,1.29965 -4.1791,2.41198 -4.259,2.4674 -0.0271,0.0188 -0.0949,0.03 -0.16386,0.0272 -0.0647,-0.003 -0.25117,-0.0105 -0.41432,-0.0176 z"
     id="path3884"
     inkscape:connector-curvature="0" />
  <path
     style="fill:#333333;stroke-width:0.01655191"
     d="m 126.54235,330.12645 c -0.0523,-0.01 0.11459,-0.10885 2.40531,-1.43117 1.35386,-0.78152 2.46503,-1.41747 2.46927,-1.41323 0.0236,0.0236 -3.20277,2.10432 -4.33866,2.79813 l -0.0996,0.0609 -0.19003,-0.002 c -0.10451,-10e-4 -0.21533,-0.007 -0.24626,-0.0124 z"
     id="path3886"
     inkscape:connector-curvature="0" />
  <path
     style="fill:#333333;stroke-width:0.01655191"
     d="m 134.32311,325.06207 c -0.14417,-0.24445 -5.50744,-9.54266 -5.50744,-9.54814 0,-0.004 0.12164,-0.008 0.27032,-0.008 h 0.27031 l 0.43631,0.71587 c 0.98458,1.61544 1.35896,2.24346 1.91174,3.20693 1.57054,2.73737 2.68986,5.01679 2.68921,5.4764 -1e-4,0.0736 -0.0518,0.18866 -0.0704,0.15696 z"
     id="path3888"
     inkscape:connector-curvature="0" />
  <path
     style="fill:#333333;stroke-width:0.01170397"
     d="m 112.31041,318.80855 c 0.0292,-0.0183 2.56416,-1.48978 11.80345,-6.8514 0.42163,-0.24468 1.10583,-0.64176 1.52043,-0.8824 0.4146,-0.24064 0.75767,-0.43335 0.76236,-0.42825 0.0163,0.0177 2.95029,4.83964 2.94667,4.84274 -0.002,0.002 -0.12478,0.006 -0.27284,0.0106 l -0.26919,0.007 -1.22143,-2.11856 c -0.67178,-1.16521 -1.22492,-2.11856 -1.22918,-2.11856 -0.004,0 -2.95429,1.70117 -6.55562,3.78038 l -6.54788,3.78038 -0.48594,-2e-4 c -0.48063,-1.9e-4 -0.48556,-4.3e-4 -0.45083,-0.0222 z"
     id="path3890"
     inkscape:connector-curvature="0" />
  <path
     style="fill:#333333;stroke-width:0.01655191"
     d="m 93.482192,329.68654 c 0.02731,-0.0171 0.470488,-0.27129 0.984839,-0.56489 3.157914,-1.80257 8.168279,-4.69562 15.252579,-8.80704 l 2.549,-1.47932 0.46918,0.008 0.46918,0.008 -9.41069,5.43316 -9.410687,5.43317 -0.476528,-2.8e-4 c -0.472807,-2.8e-4 -0.476141,-5.2e-4 -0.426873,-0.0314 z"
     id="path3892"
     inkscape:connector-curvature="0" />
  <path
     style="fill:#333333;stroke-width:0.01170397"
     d="m 85.528759,334.73539 c -0.03809,-0.0283 -0.07784,-0.0614 -0.08832,-0.0736 -0.01048,-0.0122 -0.240689,-0.45942 -0.511567,-0.9937 -0.925589,-1.82566 -1.894485,-3.82014 -2.737639,-5.63546 -0.184057,-0.39628 -0.654137,-1.41755 -0.666672,-1.44837 -0.0047,-0.0115 0.06302,-0.0146 0.315744,-0.0146 h 0.321692 l 0.07916,0.17263 c 1.393396,3.03895 2.667705,5.52124 3.327121,6.48107 0.252368,0.36735 0.446,0.56765 0.548746,0.56765 0.09847,0 2.104698,-1.11127 5.662623,-3.13658 0.482789,-0.27482 1.054235,-0.59926 1.269881,-0.72097 l 0.392083,-0.22128 0.469298,0.006 0.4693,0.006 -4.372572,2.52442 c -2.404914,1.38843 -4.380904,2.5276 -4.391089,2.53148 -0.01144,0.004 -0.04499,-0.0126 -0.08778,-0.0443 z"
     id="path3894"
     inkscape:connector-curvature="0" />
  <path
     style="fill:#333333;stroke-width:0.02340793"
     d="m 81.484677,326.47569 c -0.05297,-0.10484 -0.636832,-1.40932 -0.940304,-2.10087 -1.744365,-3.97504 -3.534934,-8.48854 -4.907785,-12.37109 -0.234053,-0.66192 -0.592504,-1.69008 -0.592504,-1.6995 0,-0.005 0.131669,-0.009 0.292599,-0.009 0.181007,0 0.292599,0.009 0.292599,0.0236 0,0.032 0.662473,1.93333 0.966418,2.77365 1.362973,3.76826 3.430904,8.80173 5.327724,12.96799 0.117229,0.25749 0.21317,0.47606 0.213203,0.48572 2.4e-5,0.01 -0.136662,0.0176 -0.303768,0.0176 h -0.303827 z"
     id="path3896"
     inkscape:connector-curvature="0" />
  <path
     style="fill:#333333;stroke-width:0.01655191"
     d="m 75.020468,310.24942 c -0.0094,-0.0246 -0.146111,-0.42495 -0.303903,-0.88967 -1.248005,-3.67547 -2.440002,-7.60887 -3.466278,-11.43815 -0.214921,-0.80191 -0.399624,-1.5047 -0.399624,-1.52054 0,-0.006 0.128416,-0.009 0.285369,-0.007 l 0.28537,0.005 0.136849,0.52138 c 1.018004,3.87855 2.228915,7.91566 3.630404,12.10358 l 0.425126,1.27036 h -0.288153 -0.288152 z"
     id="path3898"
     inkscape:connector-curvature="0" />
  <path
     style="fill:#333333;stroke-width:0.09363172"
     d="m 70.845164,296.21639 c -0.10159,-0.2912 -0.923458,-3.68178 -1.344741,-5.54768 -1.628248,-7.21164 -2.887525,-14.99951 -3.610887,-22.33117 -0.188333,-1.90884 -0.521278,-5.86671 -0.521821,-6.2031 -6.2e-5,-0.0386 0.05418,-0.0702 0.120545,-0.0702 0.08828,0 0.177388,0.54651 0.332055,2.03649 1.119089,10.78071 2.446071,19.07169 4.419232,27.61135 0.420299,1.81901 0.964091,4.05465 1.084237,4.45751 0.03774,0.12656 -0.0065,0.16386 -0.19446,0.16386 -0.133831,0 -0.261702,-0.0527 -0.28416,-0.11704 z"
     id="path3900"
     inkscape:connector-curvature="0" />
  <path
     style="fill:#333333;stroke-width:0.03310381"
     d="m 65.627091,262.44898 c -0.05959,-0.34749 -0.09125,-0.4117 -0.190721,-0.38673 -0.05359,0.0134 -0.08778,0.006 -0.09651,-0.0214 -0.0074,-0.0232 -0.04441,-0.61571 -0.08216,-1.31669 -0.03775,-0.70097 -0.0773,-1.38249 -0.08789,-1.5145 l -0.01925,-0.24 h 13.840218 13.840219 v 0.1771 0.17709 l -1.5145,0.0225 c -0.832974,0.0123 -6.475106,0.0807 -12.538069,0.15189 -11.576052,0.13594 -13.362475,0.1607 -13.387332,0.18556 -0.0084,0.008 0.05566,0.67924 0.142295,1.49083 0.08664,0.81158 0.151889,1.48123 0.145007,1.48811 -0.0069,0.007 -0.02997,-0.0893 -0.05131,-0.21374 z"
     id="path3902"
     inkscape:connector-curvature="0" />
  <path
     style="fill:#333333;stroke-width:0.03310381"
     d="m 92.839751,259.14757 v -0.18207 h 9.732519 9.73252 v -6.96836 -6.96835 h 0.19863 0.19862 v 7.02945 7.02945 l -1.72967,0.0227 c -1.88658,0.0248 -17.850282,0.2188 -18.025031,0.21906 l -0.107588,1.6e-4 z"
     id="path3904"
     inkscape:connector-curvature="0" />
  <path
     style="fill:#333333;stroke-width:0.06620762"
     d="m 112.31268,243.75797 v -1.22484 l -20.607121,-4e-4 c -12.898832,-3e-4 -21.090053,-0.0253 -21.898172,-0.067 -2.25641,-0.11629 -3.517174,-0.26809 -4.252492,-0.51203 l -0.348939,-0.11576 0.01289,-0.99304 c 0.01541,-1.18762 0.164323,-3.58835 0.387351,-6.24479 0.812425,-9.67661 2.357287,-19.16573 4.640902,-28.50617 l 0.447125,-1.82883 h 0.308669 0.308669 l -0.258849,1.07587 c -2.205742,9.16793 -4.314334,20.92599 -5.114345,28.51894 -0.308761,2.93046 -0.451105,5.87121 -0.30554,6.31228 0.214077,0.64866 1.273977,0.98753 3.750851,1.19924 3.512499,0.30023 7.379596,0.38485 28.826784,0.6308 6.427097,0.0737 12.318757,0.15212 13.092557,0.17425 l 1.40691,0.0402 v 1.38303 1.38303 h -0.19862 -0.19863 z"
     id="path3906"
     inkscape:connector-curvature="0" />
  <path
     style="fill:#333333;stroke-width:0.06620762"
     d="m 70.734293,204.18994 c 0,-0.0413 0.150866,-0.64467 0.335258,-1.34071 2.687584,-10.14503 6.179866,-19.95229 10.470427,-29.40376 l 0.420776,-0.92691 0.246145,-0.0206 c 0.135379,-0.0113 0.246144,-0.008 0.246144,0.008 0,0.0157 -0.137539,0.33778 -0.305642,0.71573 -0.936251,2.10494 -3.084967,7.41728 -4.415365,10.91624 -3.070357,8.07508 -4.613036,12.85882 -6.175746,19.15056 l -0.242554,0.97656 h -0.289721 c -0.172063,0 -0.289722,-0.0305 -0.289722,-0.0752 z"
     id="path3908"
     inkscape:connector-curvature="0" />
  <path
     style="fill:#333333;stroke-width:0.03310381"
     d="m 99.964469,156.07174 c -5.551541,-3.20811 -5.675555,-3.28396 -6.38471,-3.9048 -0.462094,-0.40456 -0.464888,-0.31672 0.03521,-1.10685 3.664291,-5.78944 7.843241,-11.63978 12.108501,-16.95135 0.0676,-0.0842 0.10808,-0.11181 0.12466,-0.085 0.0159,0.0256 0.15899,0.0448 0.40418,0.0542 l 0.37964,0.0145 -0.71744,0.8815 c -5.55468,6.82485 -9.819447,12.71534 -11.171896,15.43062 -0.33591,0.6744 -0.484221,1.10385 -0.484221,1.40212 0,0.20831 0.0039,0.2184 0.123978,0.31734 0.229294,0.18901 3.894759,2.36001 9.128529,5.40671 1.43836,0.8373 2.65989,1.55001 2.71452,1.5838 l 0.0993,0.0614 -0.49656,-0.001 -0.49656,-10e-4 -5.367136,-3.10156 z"
     id="path3910"
     inkscape:connector-curvature="0" />
  <path
     style="fill:#333333;stroke-width:0.03310381"
     d="m 116.47649,165.60291 -11.10089,-6.40921 0.47793,-0.009 0.47793,-0.009 1.0063,0.58447 c 0.55346,0.32145 4.23144,2.45015 8.17328,4.73044 8.08223,4.67545 12.02083,6.96121 12.05955,6.99874 0.0145,0.014 0.0219,0.13745 0.0166,0.27427 l -0.01,0.24875 z"
     id="path3912"
     inkscape:connector-curvature="0" />
  <path
     style="fill:#333333;stroke-width:0.03310381"
     d="m 105.97714,179.00121 c -7.16738,-4.11457 -11.363962,-6.40326 -15.823625,-8.62974 -3.040161,-1.51779 -4.624012,-2.20042 -5.216362,-2.2482 -0.199473,-0.0161 -0.201977,-0.0152 -0.30302,0.10738 -0.288666,0.3502 -1.064189,1.85067 -1.783557,3.45079 l -0.360594,0.80208 -0.256555,6.8e-4 c -0.141105,3.8e-4 -0.256554,-0.007 -0.256554,-0.0175 0,-0.067 1.655623,-3.52546 2.401231,-5.01599 0.423454,-0.84652 0.48519,-0.95222 0.578823,-0.991 0.08916,-0.0369 0.117944,-0.0358 0.192742,0.008 0.04836,0.028 5.43585,3.13768 11.972198,6.91036 6.536353,3.77269 11.928963,6.88766 11.983583,6.92216 l 0.0993,0.0627 -0.43035,-0.001 -0.43035,-0.001 -2.36692,-1.35878 z"
     id="path3914"
     inkscape:connector-curvature="0" />
  <path
     style="fill:#333333;stroke-width:0.03310381"
     d="m 126.28252,188.93085 c 0,-0.009 1.71502,-2.98766 3.81115,-6.61833 2.09614,-3.63068 3.81057,-6.61206 3.80986,-6.62528 -7.1e-4,-0.0132 -1.41407,-0.83952 -3.1408,-1.83622 l -3.1395,-1.81219 -0.01,-0.27186 -0.01,-0.27186 0.10899,0.066 c 0.0599,0.0363 0.83147,0.4871 1.71451,1.00183 3.59778,2.09715 4.72851,2.77265 4.7813,2.85635 0.0774,0.12267 -0.18999,0.80838 -0.75734,1.94236 -1.55906,3.11611 -5.00546,8.75394 -6.84493,11.19736 -0.26842,0.35656 -0.32389,0.42024 -0.32389,0.37188 z"
     id="path3916"
     inkscape:connector-curvature="0" />
  <path
     style="fill:#333333;stroke-width:0.03310381"
     d="m 123.75008,188.87049 c -2.70176,-1.37724 -9.41885,-5.08701 -14.96949,-8.26747 l -0.3707,-0.21241 0.41356,-0.009 0.41355,-0.009 7.7531,4.4744 c 4.2642,2.46092 7.76725,4.48733 7.78454,4.50312 0.0865,0.079 -0.1105,-0.0131 -1.02456,-0.47908 z"
     id="path3918"
     inkscape:connector-curvature="0" />
</svg>
